<svg data-name="Layer 1" xmlns="http://www.w3.org/2000/svg" viewBox="0 0 266.35 129.13"><path d="M70.75 73.69c-3.48-1.54-7-2.84-10.71-3.54-1.26-.24-2.52-.42-3.79-.6-1.06-.16-1.81.18-2.3 1.24-1.18 2.53-2.47 5.01-3.71 7.52-1.41 2.86-2.82 5.73-4.22 8.6-.91 1.87-1.78 3.75-2.7 5.61-1.17 2.36-2.36 4.72-3.55 7.07-.25.5-.53.99-.86 1.44-.64.84-1.67 1.04-2.57.57-.89-.47-1.32-1.46-.97-2.44.27-.75.63-1.47 1.01-2.17 2.61-4.86 4.9-9.88 7.29-14.84 1.87-3.89 3.85-7.72 5.77-11.58.49-.99 1.02-1.98.95-3.17-.04-.65.29-1.24.86-1.63.48-.33.82-.75 1.07-1.26.88-1.79 1.76-3.59 2.65-5.37.79-1.57 1.6-3.13 2.39-4.7 1.97-3.93 4.12-7.75 6.57-11.41.83-1.24 1.82-2.18 3.46-2.25.98-.04 1.69.27 2.31.98.49.56.74 1.22 1.01 1.89.93 2.31 1.43 4.73 1.88 7.17.46 2.52.97 5.01 1.58 7.5.73 2.95.71 6.02.8 9.05.02.56-.04 1.12-.02 1.68.03.98.1 1.93 1.33 2.24.28.07.52.36.73.6.8.93.69 2.24-.31 2.94-.45.31-1.02.44-1.63.69.46 2.7.82 5.38 1.61 7.97 1.14 3.74 1.23 7.54.71 11.38-.04.32-.05.65-.16.94-.3.89-1.32 1.51-2.28 1.41-.87-.08-1.74-1.03-1.77-1.99-.01-.47.11-.95.15-1.43.25-3.12.2-6.19-.68-9.25-.79-2.76-1.28-5.6-1.84-8.42-.15-.76-.06-1.57-.08-2.41m-13.74-8.36c4.61.67 9.04 1.95 13.28 3.51.41-.34.44-.66.44-.97.04-2.95 0-5.92-.68-8.8-.59-2.49-1.08-4.99-1.55-7.5-.29-1.57-.72-3.11-1.1-4.65-.06-.22-.22-.45-.51-.39-.14.03-.3.12-.37.23-1.07 1.77-2.21 3.52-3.18 5.35-1.95 3.67-3.81 7.38-5.68 11.09-.28.56-.67 1.09-.64 2.15m44.22 8.58c1.22-2.31 1.95-4.6 2.87-6.8 1.15-2.75 1.75-5.65 2.41-8.53.11-.47.19-.95.36-1.4.46-1.25 1.48-1.78 2.62-1.5.81.2 1.71 1.33 1.44 2.45-.51 2.1-.83 4.26-1.51 6.3-1.34 4.01-2.67 8.04-4.67 11.79-.47.89-.51 1.73-.21 2.73.48 1.6.73 3.27.99 4.92.09.53-.05 1.12-.18 1.66-.23.99-1.12 1.66-2.09 1.65-.88-.01-1.77-.83-1.94-1.83-.08-.47 0-.96-.09-1.43-.05-.29-.25-.56-.39-.84-.61.29-.85.81-1.17 1.26a28.876 28.876 0 01-5.24 5.58c-1.12.92-2.31 1.69-3.7 2.17-.97.34-1.9.26-2.82 0-1.62-.45-2.55-1.73-2.33-3.44.36-2.7 1.09-5.3 2.03-7.87.73-2.01 1.82-3.73 3.3-5.22.5-.51 1.06-.99 1.66-1.36 2.14-1.33 4.42-1.81 6.87-.92.52.19 1.04.37 1.79.63M90.16 87.58c1.77-.76 2.77-1.48 4.5-3.57 1.6-1.92 3.15-3.9 4.14-6.25-2.33-.96-3.7-.68-5.22 1.05-2.19 2.48-2.84 5.54-3.43 8.77m39.37-28.79c.59-2.9 1.17-5.8 1.76-8.7.16-.78.32-1.57.49-2.35.14-.65.48-1.19.99-1.6.59-.48 1.26-.72 2.01-.45.82.3 1.43 1.17 1.42 2.04 0 .32-.06.64-.13.95-.88 4.39-1.74 8.78-2.91 13.11-.46 1.7-.82 3.42-1.24 5.13-1.48 5.99-3.41 11.82-6.01 17.42-.81 1.74-1.8 3.39-3.06 4.85-.41.47-.89.94-1.43 1.25-1.72 1.01-4.3.54-5.65-1-.87-.99-1.42-2.14-1.26-3.5.34-2.82 1.15-5.48 3.08-7.66.36-.41.81-.77 1.27-1.07.98-.63 2.02-.93 3.19-.51.53.19 1.08.29 1.63.4.44.09.77-.11.95-.53.09-.22.18-.45.25-.67 1.06-3.43 2.39-6.77 2.89-10.37.32-2.28 1.08-4.5 1.64-6.75l.13.03M118.95 85.1c-.01.07-.09.38-.14.7-.05.32-.06.66.33.77.35.1.61-.14.8-.38.97-1.26 1.79-2.61 2.37-4.1.19-.48-.07-.88-.61-1.08-.53-.2-.97-.03-1.26.38-.74 1.05-1.25 2.2-1.49 3.72m24.19 2.78c-.13.63-.26 1.25-.38 1.88-.03.16-.04.32-.04.48.03 1.14.78 1.98 1.89 2.12.97.12 1.85-.45 2.18-1.48.17-.53.24-1.09.37-1.64.28-1.17.47-2.36.87-3.49 1.51-4.3 2.71-8.68 3.74-13.11.25-1.05.61-1.96 1.43-2.68.42-.37.8-.78 1.2-1.17 1.77-1.73 3.56-3.44 5.32-5.18 1.07-1.06.94-2.42-.27-3.27-.73-.52-1.56-.52-2.42.19-1.04.86-2 1.83-2.99 2.76-.85.8-.87.86-1.91.16-1.19-.81-2.36-.85-3.59-.16-.35.19-.71.37-1.03.6-3.21 2.42-4.7 5.78-5.12 9.65-.21 1.99.98 2.94 2.96 2.58.16-.03.3-.12.45-.15.49-.09.8.21.67.66-.64 2.14-1.29 4.28-1.94 6.42-.49 1.6-.98 3.2-1.47 4.81.02 0 .05.01.08.02m33.36-.83c.9.06 1.76-.48 2.1-1.29.35-.85.11-1.78-.64-2.36-.25-.19-.53-.36-.83-.47-1.54-.56-2.72-1.65-3.97-2.63-.97-.76-.93-1.1 0-1.79 1.03-.76 2.09-1.48 3.08-2.28.68-.55 1.36-1.14 1.88-1.84.71-.97 1.26-2.11.68-3.34-.56-1.19-1.75-1.25-2.88-1.34h-.24c-2.94.14-5.41 1.2-7.3 3.54-.73.9-1.33 1.86-1.32 3 0 1.14-.59 1.76-1.41 2.31-1.2.8-2.39 1.6-3.59 2.39-.33.22-.7.39-1 .66-.65.59-.81 1.66-.41 2.42.49.92 1.46 1.37 2.42 1.04.45-.15.87-.4 1.27-.65 1.08-.69 2.14-1.41 3.21-2.11.87-.57 1.22-.61 1.86.11 1.33 1.53 3.11 2.49 4.64 3.76.52.43 1.09.64 2.1.79-.13-.02.11.05.34.06m49.77 3.9c1.21-.91 2.4-1.86 3.68-2.66 2.09-1.31 3.38-5.04 2.1-7.69-.31-.65-.59-1.31-.87-1.97-.51-1.17-.53-2.28.17-3.42.84-1.36 1.61-2.75 2.76-3.89.85-.84 1.72-1.66 2.54-2.52.81-.86.79-1.94.01-2.8-.67-.74-1.74-.88-2.6-.33-.2.13-.38.29-.56.44a25.667 25.667 0 00-5.87 7.17c-1.18 2.14-1.4 4.38-.44 6.67.15.37.34.72.5 1.08.16.36.34.72.47 1.1.42 1.21.14 2.16-.88 2.95-1.27.97-2.62 1.83-3.81 2.89-1.16 1.04-.53 3 1.02 3.39.63.11 1.22-.02 1.77-.43m-16.06-23.23c-2.34 1.52-4.79 2.9-6.73 4.95-.76.81-1.47 1.7-2.04 2.64-.89 1.48-.72 2.3.49 3.63.75.83 1.52 1.65 2.21 2.52.44.56.81 1.19 1.11 1.83.31.68.06 1.23-.67 1.53-.73.3-1.52.47-2.25.79-.84.37-1.29 1.31-1.14 2.17.15.86.89 1.56 1.8 1.67.31.04.65.06.95 0 1.75-.37 3.32-1.1 4.61-2.38.35-.35.57-.74.73-1.21.63-1.88.3-3.61-.68-5.28-.65-1.11-1.52-2.05-2.35-3.02-.64-.75-.66-1.17.05-1.84.81-.77 1.66-1.51 2.57-2.13 1.37-.94 2.66-2.01 4.36-2.42.93-.22 1.38-1.26 1.24-2.09-.15-.9-.83-1.61-1.87-1.8-.74-.08-1.65-.05-2.4.44"/></svg>