<?xml version="1.0" encoding="UTF-8"?>
<svg id="Layer_1" data-name="Layer 1" xmlns="http://www.w3.org/2000/svg" viewBox="0 0 288.27 135.44">
  <path d="M42.89,101.92c-2.09-.8-4.09-1.81-5.96-3.05-1.35-.89-2.51-1.96-3.46-3.27-1.53-2.11-1.81-4.4-.89-6.82,1.15-3.03,2.84-5.71,5.18-7.98,4.27-4.12,8.79-7.94,13.95-10.89,4.44-2.54,8.94-4.98,13.74-6.82,1.51-.58,3.06-.91,4.65-1.11,1.46-.18,2.87,.1,4.21,.69,1.08,.48,1.6,1.51,1.32,2.51-.31,1.13-1.44,1.89-2.63,1.44-2.39-.89-4.54-.21-6.74,.61-2.56,.95-4.95,2.25-7.38,3.47-3.08,1.54-6.07,3.24-8.86,5.26-1.36,.98-2.74,1.94-4.02,3.02-1.83,1.55-3.58,3.19-5.34,4.81-1.8,1.66-2.98,3.75-4.01,5.92-.68,1.44-.52,2.78,.6,3.99,1.44,1.56,3.28,2.53,5.14,3.45,.93,.46,1.95,.74,2.9,1.14,2.12,.91,4.32,1.06,6.57,.72,1.1-.17,2.2-.42,3.3-.59,1-.16,1.78,.23,2.22,1.03,.44,.8,.31,1.79-.33,2.44-.35,.35-.79,.51-1.26,.63-4.37,1.14-8.68,1.31-12.9-.62m34.74-7.81c-.47,.08-.96,.15-1.39,.32-1.55,.63-1.84,2.33-.64,3.49,.51,.49,1.11,.56,1.77,.47,1.34-.18,2.69-.33,4.04-.5,.88-.11,1.7-.18,2.49,.45,.95,.76,2.02,.63,2.79-.25,.64-.73,1.37-.97,2.25-1.15,3.51-.72,6.63-2.23,9.32-4.62,3.06-2.71,4.93-6,5.21-10.15,.1-1.47-.18-2.87-.76-4.19-.59-1.33-1.49-2.47-2.93-2.99-2.35-.86-4.78-1.34-7.27-1.16-3.03,.21-6.01,.78-8.88,1.84-2.42,.9-4.62,2.17-6.56,3.88-1.02,.9-1.5,2.01-1.56,3.36-.07,1.47,.21,2.87,.83,4.18,.71,1.52,1.54,2.98,2.29,4.48,.35,.7,.97,1.27,1.09,2.23-.71,.11-1.4,.19-2.08,.31m21.48-13.72c.47,2.51-.2,4.74-1.71,6.73-2.42,3.21-5.66,5.07-9.6,5.78-3.11,.56-3.11,.57-4.75-2-.99-1.55-1.88-3.15-2.63-4.83-.19-.44-.4-.88-.52-1.33-.51-1.82-.18-2.13,1.07-3.02,2.67-1.9,5.7-2.82,8.88-3.34,2.54-.42,5.08-.63,7.43,.26,1.18,.14,1.65,.81,1.82,1.76m104.53,2.91c-1.33-.1-2.54,.22-3.65,.92-.47,.3-.97,.56-1.43,.88-2.9,2.01-5.51,4.37-8.05,6.8-.57,.54-1,1.25-1.39,1.94-.49,.88-.23,1.99,.57,2.59,.58,.43,1.25,.83,1.98,.8,1.91-.09,3.86,.01,5.68-.69,2.17-.84,4.25-1.85,6.04-3.38,1.21-1.04,2.51-1.99,3.43-3.34,.42-.62,.96-.76,1.66-.48,.67,.27,1.35,.52,2.05,.67,1.08,.23,2.19-.42,2.5-1.39,.31-.96-.2-2.09-1.22-2.58-.58-.27-1.2-.44-1.8-.67-.87-.35-.89-.39-.82-1.44,.19-3.14-1.21-4.74-4.26-5.28-3.4-.6-6.5,.21-9.51,1.65-.8,.38-1.47,.98-1.95,1.73-.5,.78-.38,1.74,.24,2.45,.6,.68,1.55,.85,2.4,.43,.21-.11,.41-.26,.6-.4,1.39-1.01,2.96-1.57,4.65-1.76,1.17-.13,2.35-.2,3.5,.37-.43,.42-.85,.22-1.22,.19m-.88,4.42c.18-.02,.21,.06,.07,.18-.25,.2,.15-.06-.17-.07,0,.08,.03,.19-.01,.24-1.43,1.75-3.16,3.11-5.31,3.87-.05,.02-.13-.06-.33-.17,1.5-1.57,3.1-2.93,5.02-3.9,.17-.09,.44,.01,.67,.02,.22-.24-.24-.14,.07-.17m-31.64,11.1c.24-.16,.4-.49,.52-.78,.48-1.16-.02-2.12-1.45-2.8-.94-.45-.97-.46-.88-1.36,.05-.55,.13-1.11,.27-1.65,1.11-4.17,2.25-8.32,3.36-12.49,.19-.71,.61-1.06,1.31-1.19,1.1-.21,2.18-.49,3.28-.69,.81-.15,1.52-.48,2.13-1.03,.71-.64,.86-1.56,.41-2.4-.27-.51-.67-.9-1.2-1.13-1.68-.74-3.28-1.61-4.78-2.7-1.38-.99-3.1-.23-3.6,1.42-.18,.61-.22,1.25-.35,1.88-.19,.94-.63,1.58-1.68,1.76-2.77,.47-5.38,1.5-8.03,2.38-.3,.1-.61,.2-.89,.35-.88,.47-1.32,1.56-1.01,2.44,.35,.99,1.2,1.57,2.22,1.4,.62-.1,1.23-.34,1.84-.53,1.68-.51,3.35-1.06,5.03-1.54,.6-.17,.85,.14,.68,.8-.14,.54-.32,1.07-.46,1.61-.85,3.24-1.68,6.49-2.52,9.74-.34,1.33-.39,2.69-.34,4.04,.06,1.44,.77,2.55,1.44,2.93,2.15,.96,3.45,.36,4.69-.44m-45.83-5.07c-.03,.07-.06,.15-.08,.23-.12,.46-.31,.92-.35,1.39-.1,1.01,.56,1.94,1.48,2.2,.92,.27,1.95-.18,2.42-1.09,.21-.42,.35-.89,.51-1.34,.59-1.66,1.21-3.31,1.74-4.98,.69-2.18,2.01-3.99,3.36-5.76,.57-.75,1.38-1.32,2.14-1.9,.75-.57,1.65-.55,2.53-.39,.51,.09,.86,.43,1.01,.92,.11,.38,.16,.78,.23,1.17,.3,1.76,.08,3.5-.23,5.24-.15,.87-.35,1.73-.39,2.61-.05,1.11,.83,2.05,1.85,2.14,1.1,.1,2.05-.58,2.29-1.68,.19-.86,.33-1.72,.45-2.59,.32-2.3,.54-4.59,.1-6.92-.67-3.59-2.82-4.77-5.21-5.11-1.66-.24-3.21,.05-4.59,.94-1.55,1-2.93,2.18-4.05,3.69-1.92,2.6-3.35,5.44-4.14,8.13-.46,1.3-.78,2.21-1.09,3.11m138.65-22.57c-.31-1.02-1-1.6-1.83-1.64-1.03-.04-1.77,.48-2.15,1.54-.16,.45-.28,.92-.37,1.39-.17,.89-.72,1.31-1.58,1.56-1.38,.39-2.74,.87-4.09,1.37-1.27,.48-2.54,.97-3.76,1.57-1.01,.5-1.33,1.44-1,2.42,.35,1.04,1.39,1.65,2.47,1.37,.61-.16,1.2-.44,1.79-.69,1.53-.65,3.08-1.24,4.88-1.68-.04,1.27-1.05,9.37-1.13,10.46-.05,.68,.24,1.21,.53,1.79,.77,1.56,4.83,2.87,6.94,2.16,1.12-.38,1.81-1.22,1.7-2.28-.11-1.07-.96-1.81-2.15-1.84-.55-.01-1.11,.1-1.66,.06-.74-.06-1.14-.55-1.07-1.31,.07-.79,1.24-8.58,1.34-9.37,.09-.72,.43-1.14,1.2-1.24,1.58-.2,3.16-.45,4.73-.69,.47-.07,.96-.1,1.4-.26,.88-.31,1.39-1.19,1.29-2.07-.11-.96-.7-1.67-1.62-1.83-.46-.08-.95-.05-1.42,0-1.35,.14-2.68,.31-4.28,.51-.06-.52-.04-.93-.15-1.3m-23.01,23.66c.15,.03,.32-.03,.47-.06,.85-.21,1.41-.71,1.62-1.58,.22-.89-.18-1.56-.8-2.12-.36-.33-.85-.41-1.34-.45-1.67-.16-3.33-.32-5-.49-2.19-.21-4.2-.86-5.93-2.28-1.77-1.45-3.8-4.57-2.51-6.45,1.13-1.65,2.32-3.23,3.73-4.67,.9-.92,.8-2.1-.08-2.98-.75-.75-1.83-.73-2.81,.06-.12,.1-.23,.22-.35,.33-2.03,1.85-3.42,4.19-4.96,6.42-.22,.32-.34,.72-.48,1.09-.56,1.45-.36,4.81,.54,6.08,1.62,2.3,5.79,4.84,8.27,5.58,3.23,1.31,6.5,.99,9.63,1.53"/>
</svg>