<svg data-name="Layer 1" xmlns="http://www.w3.org/2000/svg" viewBox="0 0 262.08 130.52"><path d="M35.61 74.42c-1.56.92-2.72 1.61-3.88 2.29-.69.41-1.36.86-2.08 1.19-.95.43-1.92.07-2.49-.83a2.04 2.04 0 01.39-2.61c.3-.26.67-.44 1-.65 2.35-1.52 4.74-2.98 7.34-4.05 1-.41 1.42-1.12 1.62-2.16 1.12-5.73 2.3-11.46 3.45-17.18.13-.63.23-1.26.4-1.88.37-1.31 1.32-1.97 2.45-1.75 1.16.22 1.83 1.19 1.69 2.5-.06.55-.2 1.1-.31 1.65-.9 4.47-1.81 8.94-2.71 13.42-.13.63-.25 1.26-.34 1.89-.05.35.27.63.59.52.91-.3 1.81-.63 2.71-.94 4.26-1.45 8.65-2.3 13.12-2.72 1.51-.14 3.04-.04 4.55-.02.58.01.9-.21 1.02-.76.14-.62.27-1.25.4-1.88.79-3.92 1.58-7.84 2.38-11.77.13-.63.23-1.27.46-1.86.43-1.06 1.52-1.55 2.55-1.23.96.3 1.53 1.16 1.43 2.22-.04.48-.16.95-.25 1.42-1.84 9.1-3.69 18.2-5.5 27.3-.61 3.09-1.63 6-3.22 8.73-1.46 2.5-2.31 5.26-3.17 8.01-.38 1.22-.77 2.44-1.27 3.62-.47 1.1-1.29 1.54-2.25 1.41-1.29-.18-2.22-1.42-1.75-2.61 1.74-4.37 2.63-9.07 5.15-13.14.92-1.5 1.56-3.14 1.9-4.89.58-2.98 1.26-5.95 1.86-8.93.26-1.27 0-1.61-1.34-1.56-1.67.05-3.35.19-5.01.4-5.02.66-9.86 1.97-14.48 4.06-.73.33-1.2.72-1.36 1.5-.48 2.29-1.52 4.37-2.43 6.5-.53 1.24-.93 2.55-1.37 3.83-.21.6-.31 1.25-.56 1.83-.41.95-1.42 1.42-2.36 1.18-1.03-.26-1.83-1.33-1.54-2.37.5-1.76.86-3.57 1.59-5.27.56-1.3 1.38-2.53 1.63-4.41m49.15-3.58c-.36 1.22-.21 2.39.27 3.52 1.25 2.89 1.92 5.92 2.44 9 .1.63.22 1.27.45 1.86.37.96 1.37 1.46 2.33 1.26 1.06-.22 1.74-1.17 1.63-2.29-.06-.55-.19-1.1-.26-1.66-.05-.45.27-.79.7-.72.95.15 1.89.35 2.83.5 2.06.33 4.16.64 6.16-.11 2.56-.96 4.9-2.3 6.76-4.4 1.5-1.7 2.7-3.58 3.58-5.64 1.27-2.99 1.6-5.95-.47-8.88-2.32-3.28-7.49-7.11-13.55-5.69-2.67.63-5.17 1.65-7.64 2.78-1.94.89-3.1 2.43-3.83 4.39-.46 1.21-.61 2.48-.88 3.56-.19.94-.3 1.74-.52 2.51m5.81 6.14c-.4-1.03-.75-2.09-1.22-3.09-.47-.99-.56-1.95-.3-3.01.32-1.32.55-2.66.82-3.99.29-1.43 1.07-2.45 2.44-3.03 1.98-.84 3.96-1.65 6.07-2.16 4.1-.99 8.18 1.71 9.59 4.35.52.98.72 1.93.35 2.98-.85 2.44-1.98 4.73-3.88 6.52-2.38 2.25-5.13 3.5-8.51 2.64-.62-.16-1.25-.26-1.88-.38v.05c-1.17-.29-2.33-.58-3.49-.88m72.74-8.26c-1.27 2.4-2.58 4.78-3.85 7.18-.75 1.41-1.4 2.87-1.62 4.48-.22 1.58.44 2.78 1.67 2.96 1.03.15 2.34-.74 2.49-2.09.14-1.29.63-2.47 1.24-3.61 2.26-4.14 4.53-8.27 6.46-12.57.48-1.06 1.21-1.82 2.29-2.34 1.15-.55 2.24-1.23 3.33-1.9 3.49-2.12 7.08-4.05 10.9-5.51.37-.14.76-.27 1.1-.47.89-.52 1.29-1.57.98-2.47-.31-.91-1.27-1.51-2.29-1.34-.54.1-1.07.31-1.59.51-3.2 1.28-6.32 2.71-9.24 4.56-.46.29-.97.52-1.57.83-.95-1.78-2.52-2.34-4.33-2.58-1.54-.2-2.66.39-3.56 1.51-.5.62-.95 1.29-1.31 2-.65 1.28-1.32 2.57-1.8 3.92-.93 2.62-1.13 2.99 1.62 4.78-.3.69-.56 1.43-.92 2.12M135.8 80.07c.94-2.89 1.91-5.76 2.86-8.65.2-.6.46-1.2.56-1.82.14-.87-.45-1.77-1.27-2.1-.84-.35-1.82-.12-2.37.61-.24.31-.38.7-.54 1.06-1.11 2.49-1.72 5.15-2.61 7.71-.66 1.9-1.1 3.84-1.49 5.8-.16.8-.16 1.6-.05 2.39.13 1.02.95 1.78 1.93 1.81 1.13.03 2.26-.11 3.26-.67 3.24-1.79 5.66-4.43 7.3-7.71 1.64-3.28 3.13-6.64 4.68-9.97.49-1.05.19-2.11-.72-2.75-.85-.6-2.06-.41-2.76.56-.55.77-1 1.64-1.4 2.5-1.08 2.32-2.14 4.64-3.14 6.99-.77 1.8-1.98 3.28-3.22 4.74-.24.29-.55.61-1.11.36.02-.27 0-.59.09-.87m71.95-2.83c-2.53.27-4.73 1.38-6.87 2.64-.27.16-.52.38-.73.61a2.06 2.06 0 00-.16 2.45c.49.74 1.47 1.15 2.3.86.52-.18 1-.5 1.48-.78 1.75-1.03 3.62-1.65 5.66-1.75 1.19-.06 2.39-.1 3.58-.22 2.49-.25 3.76-2.3 2.9-4.63-.61-1.67-1.56-3.14-2.56-4.58-.75-1.08-.77-1.22.07-2.02 2.72-2.57 5.37-5.25 8.97-6.64.15-.06.29-.14.42-.23.86-.59 1.17-1.62.75-2.52-.43-.92-1.36-1.41-2.35-1.2a8.55 8.55 0 00-2.85 1.21c-3.01 1.98-5.8 4.24-8.27 6.87-.54.57-.97 1.26-1.37 1.95-.6 1.04-.69 2.11.04 3.16.45.65.89 1.32 1.29 2.01.43.74 1.11 1.36 1.27 2.37-1.24.16-2.41.33-3.59.46"/></svg>