<svg data-name="Layer 1" xmlns="http://www.w3.org/2000/svg" viewBox="0 0 745.18 206.64"><path d="M634.59 114.18c-1.39-.93-2.73-1.82-4.06-2.72-.5-.34-1.04-.64-1.46-1.07-1-1-1.13-2.41-.42-3.58.73-1.2 1.93-1.68 3.06-1.11.98.49 1.96 1.02 2.86 1.67 2.64 1.94 5.56 3.19 8.41 4.63 1.96.99 3.83 2.18 5.76 3.23.79.43 1.6.95 2.44 1.05 1.48.18 2.51 1.07 3.52 2.16 1.84 2 1.68 4.46-.49 6.07-.98.73-2.02 1.36-3.05 1.99-7.22 4.41-14.45 8.8-21.67 13.21-1.11.68-2.18 1.47-3.31 2.1-.61.34-1.31.42-1.99.05-.84-.46-1.45-1.12-1.55-2.23-.11-1.2.26-2.19 1.18-2.83 1.33-.92 2.68-1.81 4.05-2.65 6.18-3.79 12.37-7.57 18.56-11.35.17-.1.36-.2.48-.36.11-.15.17-.37.2-.57.04-.27-.11-.4-.35-.43-1.26-.18-2.51-.43-3.77-.55-5.86-.53-11.71-.13-17.55.45-4.66.46-9.33.87-14 1.37-4.47.48-8.93 1.07-13.4 1.58-5.15.6-10.3 1.12-15.44 1.76-10.67 1.32-21.33 2.73-32.01 4.01-6.51.77-12.95 1.95-19.4 3.18-1.94.37-3.86.42-5.83.14-6.5-.9-13.03-1.48-19.57-1.81-.97-.05-1.96 0-2.93.11-7.76.91-15.53 1.83-23.29 2.8-1.94.24-3.86.63-5.78 1.02-1.66.33-3.3.33-4.95.04-2.9-.51-5.82-.9-8.71-1.46-5.69-1.11-11.45-1.61-17.19-2.12-4.28-.38-8.59-.16-12.88-.14-5.18.04-10.36-.18-15.5-.99-8.81-1.39-17.63-2.78-26.44-4.19-4.09-.66-8.19-.25-12.29-.26-3.32-.01-6.64-.03-9.96-.05-1.66-.01-3.32-.04-4.97-.07-3.72-.06-7.4-.64-11.08-1.24-9-1.49-17.99-3.03-27.02-4.33-4.94-.71-9.92-1.04-14.9-1.34-5.76-.35-11.51-.69-17.27-.77-4.2-.06-8.4-.02-12.59.19-6.14.31-12.28.81-18.42 1.24-2.34.17-4.68.29-7.01.58-1.78.22-3.5-.02-5.26-.19-6.53-.64-12.96-2.17-19.51-2.6-2.93-.19-5.85-.04-8.78.12-5.79.33-11.34 2.24-17.06 2.96-1.16.15-2.32.35-3.49.41-1.52.08-2.69-1.07-2.84-2.67-.14-1.51.91-2.98 2.47-3.08 5.09-.35 9.99-1.96 15.02-2.7 4.94-.73 9.89-1.15 14.89-.8 4.01.28 7.97.89 11.94 1.52 3 .47 6.01.91 9.02 1.3 2.34.3 4.68-.13 7.02-.29 6.14-.42 12.27-1 18.41-1.37 4.48-.28 8.98-.45 13.46-.46 4.3 0 8.6.25 12.89.41 7.33.27 14.63.98 21.94 1.63 1.56.14 3.11.37 4.66.62 8.91 1.46 17.81 2.92 26.71 4.41 2.81.47 5.63.73 8.47.74 6.25 0 12.5.23 18.75-.07 3.21-.15 6.43.15 9.63.7 8.51 1.46 17.03 2.8 25.56 4.14 4.56.71 9.17.91 13.75.76 8.72-.28 17.39.27 26.02 1.63 4.07.64 8.13 1.31 12.19 2.02 1.66.29 3.27.24 4.95-.02 7.45-1.13 14.9-2.22 22.37-3.17 7.5-.95 15.01-.83 22.51.26 2.9.42 5.84.6 8.75.96 1.39.17 2.73-.08 4.07-.36 10.67-2.2 21.44-3.48 32.21-4.82 6.88-.86 13.77-1.7 20.65-2.52 5.44-.65 10.88-1.26 16.31-1.87 7.09-.8 14.18-1.63 21.28-2.36 3.89-.4 7.79-.6 11.68-.88.39-.03.78 0 1.29-.76"/><path d="M41.58 131.14c-1.28-.31-2.16-1.45-2.23-2.62-.07-1.21.62-2.51 1.61-2.88.55-.2 1.15-.25 1.73-.31 4.08-.38 8.18-.64 12.25-1.14 10.1-1.23 20.26-1.41 30.39-2.08 6.82-.45 13.62-1.05 20.43-1.76 4.96-.52 9.86-1.53 14.86-1.63 2.23-.04 4.46-.6 6.69-.81 2.95-.27 5.87.09 8.71.93 2.66.79 5.11.55 7.71-.57 10.97-4.76 22.37-6.85 34.13-6.63 2.73.05 5.45.07 8.18.23 4.35.26 8.45 1.76 12.58 3.06 1.41.44 2.11 1.55 2.1 2.82-.01 1.81-1.3 3.16-2.88 2.88-1.06-.19-2.1-.53-3.12-.9-5.18-1.86-10.47-2.35-15.89-2.34-5.09 0-10.15.19-15.17 1.08-3.95.7-7.89 1.59-11.78 2.66-2.26.62-4.47 1.62-6.61 2.67-3.09 1.52-6.25 1.82-9.46.91-4.34-1.22-8.68-1.43-13.06-.37-.38.09-.77.13-1.16.14-5.76.19-11.45 1.21-17.17 1.86-11.47 1.3-22.98 1.74-34.48 2.42-5.75.34-11.47.86-17.2 1.55-3.2.39-6.43.53-9.64.77-.58.04-1.16.05-1.51.07M280.6 80.62c-1.43 4.8-3.58 9.12-7.55 12.4-1.73 1.43-3.64 2.33-5.75 2.9-2.8.75-5.13-.53-7.37-1.89-1.03-.63-1.44-1.75-1.16-3.01.1-.44.23-.89.41-1.31 2.31-5.28 5.27-10.12 9.61-14.01.94-.84 1.94-1.58 3.1-2.12 3.13-1.45 6.57-.48 8.33 2.42.9 1.48.69 3.05.38 4.62m-13.31 6.82c-.1.45-.15.56-.15.68 0 .41-.36.94.25 1.14.27.09.7 0 .94-.17 3.23-2.25 5.14-5.4 6.1-9.17.04-.14-.12-.44-.26-.49-.18-.07-.5-.06-.64.06-2.21 1.83-4.13 3.91-5.54 6.42-.33.59-.57 1.23-.71 1.53m-26.78 7.04c-.37 1.63.3 2.9 1.93 3.54 1.39.55 2.89-.2 3.61-1.77.38-.83.65-1.71.93-2.57a243.6 243.6 0 001.65-5.23c.41-1.36 1.29-2 2.69-2.26 1.3-.24 2.49.08 3.73.23 1.61.19 3.04-.83 3.36-2.27.29-1.29-.44-2.78-1.78-3.37-.72-.32-1.53-.57-2.31-.59-2.99-.1-2.4-.92-1.4-2.88.36-.71.67-1.45 1.02-2.17 1.01-2.05 2.07-4.07 3.02-6.15.7-1.52.16-2.95-1.26-3.84-1.15-.72-2.72-.47-3.67.76-.69.9-1.26 1.91-1.74 2.94-1.79 3.83-3.76 7.58-5.12 11.59-.35 1.04-.9 1.77-2 2.13-1.3.42-2.58.95-3.82 1.53-1.34.62-1.97 1.74-1.82 3.01.15 1.26.93 2.03 2.05 2.53.62.27 1.4-.06 1.91.51-.33 1.45-.65 2.89-.98 4.34m52.18-20.81c.11-.68.32-1.34.38-2.02.17-1.87-.82-3.23-2.49-3.52-1.5-.26-2.8.61-3.34 2.26-.14.43-.22.89-.32 1.33-1.51 6.68-3.02 13.36-4.52 20.04-.13.56-.26 1.12-.3 1.68-.09 1.27.72 2.51 1.88 2.96 1.19.47 2.49.07 3.37-.99.54-.64.72-1.41.9-2.19.53-2.34 1.09-4.67 1.58-7.02.24-1.17.75-2.08 1.75-2.8 1.94-1.41 3.84-2.85 6.19-3.57 1.85-.57 3.59-1.44 5.5-1.89.98-.23 1.95-.68 2.81-1.22 1.4-.88 1.65-2.49.77-3.9-.75-1.2-2.04-1.68-3.58-1.2-1.96.61-3.88 1.32-5.83 1.98-1.49.5-2.91 1.25-4.38 1.45-.52-.51-.43-.96-.36-1.39M197.1 85.9c.69-3.28 1.67-7.62 3.1-11.85 1.21-3.57 2.54-7.07 4.97-10.07 1.81-2.24 4.07-3.16 6.88-3.07 1.32.04 2.5.41 3.5 1.21 1.51 1.22 2.95 2.52 3.98 4.21 1.91 3.13 1.75 6.32-.57 9.2-.64.8-1.34 1.57-2.13 2.22-2.99 2.47-6.01 4.92-9.07 7.31-.98.77-2.1 1.39-3.21 1.95-1.21.61-1.94 1.43-2.19 2.83-.37 2.14-.93 4.24-1.41 6.36-.15.67-.28 1.35-.53 1.99-.49 1.26-1.72 1.99-2.97 1.85-1.47-.16-2.58-1.19-2.68-2.66-.05-.78.1-1.59.27-2.36.58-2.68 1.2-5.36 2.05-9.12m14.75-18.85c-1.13-.18-1.75.29-2.25.96-2.24 2.99-3.29 6.5-4.34 10-.05.16.05.46.18.57.15.11.49.16.61.07 2.67-2.14 5.33-4.29 7.97-6.47.25-.21.44-.54.56-.85.12-.3.2-.66.16-.98-.15-1.28-1.89-3.11-2.9-3.3m-30.55 19.51c0-1.94-.33-3.85-.02-5.82.29-1.86-.86-3.19-2.56-3.39-1.49-.18-2.75.73-3.18 2.48-.27 1.1-.5 2.27-.43 3.38.19 2.96.51 5.92.85 8.86.11 1.02.43 1.99 1.04 2.87 1.2 1.73 2.47 2.15 4.4 1.36 1.95-.8 3.59-2.04 4.9-3.66 3.6-4.44 7.2-8.88 9.82-14.01.26-.51.57-1 .76-1.53.51-1.42 0-2.87-1.21-3.59-1.22-.72-2.77-.5-3.72.65-.58.7-1.04 1.5-1.46 2.31-2.1 4.1-5.08 7.59-7.84 11.22-.2.26-.43.49-.85.95-.26-1.03-.5-1.57-.51-2.12m-70.95.37c.37.42.49.62.67.75 3.17 2.43 3.87 5.69 3.36 9.47-.47 3.48-1.89 6.26-4.84 8.29-2.36 1.63-4.74 3.2-7.45 4.17-.54.19-1.07.42-1.63.53-1.38.25-2.77-.61-3.26-1.94-.42-1.14.03-2.66 1.07-3.35.56-.37 1.22-.6 1.86-.85 2.26-.88 4.32-2.11 6.22-3.59 1.85-1.44 2.7-4.34 2.04-6.48-.22-.71-.71-1.18-1.38-1.43-1.28-.48-2.58-.94-3.88-1.35-3.37-1.05-6.17-2.86-8.26-5.79-1.69-2.38-1.86-4.88-.74-7.45 1.58-3.66 4.12-6.55 7.41-8.78.85-.57 1.79-1.02 2.69-1.5 3.37-1.79 6.63-1.28 9.79.53 2.73 1.56 3.66 3.83 3.01 6.94-.96 4.61-3.07 8.58-6.68 11.84m.34-11.36c.05-.22.1-.44.15-.67.28-1.35-.08-1.87-1.42-2.18-.93-.22-1.78-.08-2.66.28-2.42.97-4.15 2.76-5.72 4.74-.95 1.2-.77 2.4.57 3.11 1.51.8 3.18 1.46 4.9 1.08 1.27-.28 1.85-1.6 2.55-2.63.78-1.14 1.32-2.39 1.62-3.74M52.27 85.64c3.26-3.06 6.66-5.94 10.36-8.45 1.99-1.34 4.03-2.61 6.01-3.96 1.87-1.28 1.95-3.54.22-4.92-1.02-.81-2.08-.7-3.21-.17-2.3 1.08-4.22 2.74-6.3 4.15-4.09 2.76-7.86 5.9-11.43 9.31-1.16 1.11-2.15 2.36-3.11 3.64-.99 1.31-1.16 2.62-.83 4.18.28 1.36 1.03 2.27 2.07 3.02 2.89 2.05 5.79 4.08 8.69 6.11.63.44 1.42.72 1.73 1.63-.48.79-1.31 1.23-2.11 1.61-2.58 1.22-5.04 2.69-7.79 3.57-1.41.45-2.79 1.08-4.05 1.85-2.03 1.24-1.9 3.85.13 5.05.87.51 1.76.48 2.64.12 4.02-1.65 8.07-3.24 11.88-5.33 1.61-.88 3.11-1.93 4.47-3.18 2.01-1.84 2.28-4.04.88-6.43-.72-1.23-1.71-2.08-2.88-2.86-3.13-2.08-6.19-4.26-9.21-6.35.21-1.33 1.11-1.94 1.84-2.62m80.81.67c.34-1.26 1.06-1.58 2.33-1.24.84.22 1.36.74 1.76 1.49.93 1.71 1.78 3.44 2.21 5.36.17.77.4 1.56.76 2.25.67 1.26 1.92 1.75 3.17 1.4 1.32-.37 2.19-1.36 2.25-2.69.02-.55-.13-1.12-.22-1.68-.51-3.1-1.97-5.82-3.5-8.49-.88-1.53-2.3-2.6-3.92-3.19-4.83-1.78-9.27.02-10.48 4.97-.84 3.43-1.76 6.86-2.12 10.39-.11 1.12-.12 2.29.05 3.4.19 1.25 1.41 2.09 2.74 2.17a2.77 2.77 0 002.82-2.03c.18-.65.21-1.35.26-2.03.16-2.17.44-4.31 1.07-6.5.25-1.12.49-2.36.82-3.57m-55.97 6.25c-.59 2.68-1.25 5.35-1.75 8.05-.28 1.51.59 2.75 1.97 3.2 1.4.46 2.77-.04 3.51-1.38.32-.59.51-1.27.66-1.93 1.2-5.24 2.38-10.49 3.55-15.74.15-.66.26-1.36.22-2.03-.09-1.45-1.22-2.53-2.66-2.69a2.89 2.89 0 00-2.99 1.83c-.25.63-.38 1.32-.53 1.99-.56 2.45-1.11 4.91-1.67 7.36l-.3 1.34m6.68-26.19c-1.61-.3-3.16.83-3.4 2.49-.21 1.46.82 2.97 2.27 3.3 1.54.35 3.28-.77 3.59-2.32.32-1.56-.82-3.16-2.46-3.46m472.81 16.03c-.92-.29-2.47-.71-3.96-1.26-2.5-.92-3.69-2.74-3.1-5.31 1.05-4.61 3.14-8.58 7.68-10.73.93-.44 1.89-.81 2.81-1.25 2.34-1.12 4.66-.77 6.99.01 2.21.74 3.47 2.44 3.16 5.38-.18 1.71-.79 3.33-1.58 4.86a54.1 54.1 0 01-1.49 2.69c-.36.62-.63 1.26-.26 1.93 1 1.8.55 3.59-.12 5.29-.75 1.9-1.55 3.82-2.62 5.56-3.72 6.03-8.06 11.61-12.44 17.16-1.29 1.63-2.62 2-4.53 1.33-2-.7-2.7-3.29-1.14-4.7 5.41-4.88 9.05-11.1 13.09-17.02.07-.09.11-.2.17-.3 1.7-2.91 1.61-3.11-1.69-3.53-.11-.01-.23-.03-.97-.12m.77-6.03c.89.19 1.81.52 2.58-.26 1.71-1.72 3.08-3.66 3.76-6.03.12-.41-.38-.96-.79-.85-2.83.77-5.33 1.99-6.58 4.91-.57 1.33-.33 1.9 1.04 2.22M327.65 91.53c.12 2.46 1.01 4.69 2.93 6.33 1.47 1.26 3.09 1.19 4.31-.03 1.05-1.05 1.08-2.5.06-4.03-.06-.09-.15-.18-.23-.26-1.25-1.3-1.28-2.8-.87-4.47 1.24-5.1 4.12-9.12 8.04-12.47.78-.66 1.66-1.23 2.56-1.72 1.38-.76 2.83-.82 4.3-.21 1.06.43 1.41 1 1.2 2.12-.58 3.07-1.75 5.87-3.63 8.42-1.75 2.37-3.69 3.93-6.88 3.43-1.59-.25-2.99 1.04-3.22 2.47-.23 1.43.71 2.88 2.28 3.41.98.33 1.98.47 3.04.32 3.57-.51 6.45-2.22 8.71-4.97.94-1.15 1.8-2.38 2.57-3.64a22.89 22.89 0 003.27-9.67c.32-3.15-.68-5.43-4.23-7.06-4.2-1.92-8.21-1.59-11.98 1.19-5.49 4.05-9.59 9.09-11.61 16.31-.6 1.07-.7 2.82-.62 4.52m145.31-4.85c-1.16 1.09-2.4 2.24-3.62 3.41-1 .95-2.09 1.77-3.29 2.45-4.42 2.48-8.25-.84-8.03-4.8.2-3.6 1.2-6.96 3.33-9.9.86-1.2 1.85-2.33 2.9-3.37 2.92-2.92 5.84-3.49 9.66-1.77.88.39 1.45.49 2.09-.21.08-.08.17-.16.27-.21 2.39-1.42 4.99-.12 5.16 2.64.07 1.12-.13 2.28-.32 3.4-.26 1.46-.64 2.9-.96 4.35-.29 1.34-.59 2.65-.5 4.06.1 1.61-.79 2.79-2.05 3.18-1.41.43-2.73-.25-3.66-1.81-.26-.45-.06-1.17-.97-1.41m-8.57-.55c3.22-2.06 5.13-4.81 7.03-7.6-.89-.86-1.75-.92-2.55-.23-2.28 1.99-4.01 4.31-4.48 7.82m-28.29-6.62c.09 1.36.14 2.73.21 4.1.08 1.59.94 2.7 2.31 3 1.22.27 2.4-.25 3.2-1.47.38-.57.67-1.2 1.01-1.79.56-1 1.1-2.01 1.7-2.98.23-.37.45-1.01.92-.89.51.13.23.72.19 1.13-.05.57-.2 1.14-.13 1.7.19 1.52 1.68 2.74 3.13 2.58 1.38-.15 2.38-.92 2.72-2.26.61-2.44 1.06-4.92 1.02-7.45-.02-1.31-.54-2.44-1.2-3.53-.57-.94-1.39-1.43-2.49-1.61-2.16-.37-3.74.69-5.26 1.96-.84.69-1.36 1.78-2.46 2.17-.8-.87-1.51-1.62-2.18-2.39-.81-.93-1.84-1.23-3.05-1.27-2.31-.08-3.86 1.15-5.21 2.8-2.89 3.53-3.52 7.87-4.32 12.13-.26 1.38.83 2.74 2.17 3.1 1.2.33 2.58-.19 3.25-1.34.34-.58.54-1.26.71-1.91.37-1.44.66-2.9 1-4.35.29-1.23.66-2.43 1.86-3.39.69.64.86 1.3.91 1.98m212.59-25.21a3.29 3.29 0 00-1.53-3.21c-1.06-.65-2.49-.48-3.44.55-.61.66-1.12 1.45-1.52 2.26-.58 1.15-1.22 2.07-2.55 2.57-1.43.53-2.06 1.84-1.69 3.35.23.95.26 1.78-.15 2.65-1.74 3.68-2.16 7.67-2.75 11.62-.38 2.56.06 4.98 1.02 7.37.7 1.73 1.98 2.83 3.57 3.49 1.57.65 3.29.96 5.02.98 1.93.02 3.19-1.01 3.36-2.69.15-1.49-.82-2.73-2.52-3.15-.89-.22-1.79-.39-2.69-.55-1.06-.18-1.56-.85-1.68-1.87-.08-.68-.24-1.37-.19-2.04.26-3.54.74-7.09 2.18-10.34 1.34-3.03.75-3.27 4.48-2.39.89.21 1.78.42 2.68.6.89.18 1.79.44 2.69.47 1.37.06 2.75-1.09 3.02-2.35.27-1.25-.53-2.83-1.81-3.37-.62-.26-1.31-.38-1.98-.54-1.44-.34-2.88-.65-4.21-.95-.24-1.13.58-1.67.68-2.47M378.68 90.93c1.93-1.47 3.46-3.28 4.69-5.38 2.55-4.36 3.95-9.21 6.09-13.74.31-.65.31-1.35.08-2-.36-1.02-1.01-1.8-2.1-2.08-1.25-.32-2.31.14-3.02 1.12-.87 1.2-1.44 2.57-1.96 3.97-1.31 3.53-2.64 7.05-4.6 10.29-.09.14-.38.21-.57.22-.26 0-.35-.2-.29-.49l1.32-6.02c.19-.89.45-1.78.55-2.68.2-1.7-.7-2.97-2.26-3.32-1.51-.34-2.86.47-3.42 2.1-.22.65-.34 1.33-.49 2-.86 3.79-1.71 7.58-2.57 11.36-.15.67-.29 1.34-.41 2.01-.23 1.28.33 2.26 1.3 2.97.63.47 1.42.72 2.05 1.03 2.09.16 3.98-.09 5.62-1.35m151.62-10.82l1.44-6.37c.2-.89.38-1.79.98-2.53.37-.45.72-.91 1.36-.94 3.24-.16 4.22.74 3.66 3.64-.17.89-.54 1.74-.83 2.61-.25.76-.59 1.5-.75 2.28-.31 1.56.68 2.97 2.24 3.34 1.57.37 2.95-.37 3.72-2.29.94-2.34 1.63-4.78 1.77-7.32.17-3.09-1.72-7.02-5.86-7.76-1.35-.24-2.71-.44-4.07-.64-1.59-.24-2.94.36-4.09 1.38-1.84 1.62-3.24 3.58-3.8 5.99-1.07 4.68-2.32 9.33-2.92 14.11-.26 2.09.69 3.69 2.34 3.92 1.56.22 2.89-.82 3.41-2.69.12-.44.19-.9.29-1.34.4-1.79.81-3.57 1.21-5.36-.04 0-.08-.02-.12-.03m-32.89 2.14c-.18.78-.39 1.56-.45 2.35-.12 1.52 1.06 3.04 2.45 3.27 1.29.21 2.79-.61 3.3-1.93.33-.85.49-1.76.69-2.65 1.79-7.92 3.57-15.84 5.37-23.75.35-1.56.57-3.16 1.39-4.58.35-.62.45-1.3.28-1.99-.31-1.19-.99-2.06-2.23-2.36-1.25-.3-2.29.19-3.01 1.17-1.02 1.4-1.58 3.02-1.96 4.71-.97 4.35-1.96 8.7-2.94 13.05-.96 4.24-1.92 8.48-2.87 12.71m-93.81-19.53c-.13-.32-.18-.67-.35-.97-.67-1.2-1.93-1.9-3.12-1.66-1.21.24-2.06.98-2.44 2.16-.21.65-.34 1.33-.49 2-1.54 6.81-3.08 13.62-4.61 20.43-.15.67-.34 1.34-.4 2.02-.15 1.56.91 3.04 2.34 3.35 1.43.31 2.96-.59 3.5-2.11.23-.64.34-1.33.5-2 .58-2.57 1.02-5.18 1.77-7.69 1.22-4.05 2.38-8.21 7.6-9.01 1.31-.2 2.07-1.7 1.93-2.91-.15-1.29-1.07-2.43-2.34-2.62-1.11-.17-2.26-.11-3.47-.15-.12-.25-.28-.54-.41-.84M620.9 82.9c-.42.18-.84.36-1.28.48-.66.18-1.36.23-2 .45-1.44.49-2.29 1.77-2.14 3.13.16 1.49 1.42 2.62 3.09 2.62.79 0 1.59-.15 2.35-.35 2.24-.59 4.23-1.69 6.02-3.15 1.74-1.42 2.2-3.03 1.35-5.16-.38-.95-.93-1.83-1.44-2.71-.74-1.28-1.53-2.54-2.26-3.83-.59-1.03-.39-1.92.49-2.75 1.42-1.34 2.82-2.54 4.81-3.09 1.71-.47 2.37-2.05 1.92-3.49-.48-1.53-1.73-2.36-3.44-2.15-.89.11-1.85.29-2.61.73-2.57 1.52-4.85 3.4-6.57 5.9-1.1 1.6-1.4 3.34-.84 5.2.46 1.54 1.12 3 2.02 4.33.64.95 1.33 1.85 1.6 3.24-.47.27-.76.46-1.07.6m-26.33-12.17c.85-3.78 1.71-7.56 2.56-11.34.1-.45.23-.89.28-1.34.21-1.73-.59-2.99-2.14-3.4-1.51-.4-2.93.34-3.5 1.95-.53 1.5-.99 3.03-1.35 4.58-1.51 6.55-2.98 13.12-4.45 19.68-.15.66-.31 1.34-.33 2.02-.05 1.55 1.16 3.01 2.54 3.18 1.35.17 2.71-.66 3.2-2.04.27-.75.41-1.54.58-2.32l2.49-11.01.13.03m5.97 17.21c1.52.47 3.03-.41 3.74-2.17.13-.32.21-.65.32-.98.84-2.61 1.79-5.18 3.06-7.62 1.11-2.12 2.3-4.21 3.35-6.36.81-1.65.3-3.28-1.14-4.17-1.34-.83-3.11-.3-4.1 1.3-.6.97-1.06 2.02-1.63 3-2.36 4.07-4.09 8.4-5.32 12.25-.96 2.42.1 4.23 1.71 4.74m-107.48-8.76c.43-1.9.9-3.79 1.28-5.7.46-2.32-.42-3.89-2.29-4.24-1.7-.32-3.06.7-3.58 2.86-.86 3.56-1.63 7.14-2.43 10.72-.1.44-.19.9-.19 1.35.04 1.69 1.45 2.98 3.16 2.93 1.2-.03 2.34-.87 2.72-2.24.52-1.87.88-3.79 1.31-5.69h.02m25.6-3.99c.51-1.62-.24-3.08-1.65-3.65-1.35-.55-2.66-.17-3.58 1.15-.44.64-.85 1.38-1.02 2.13-.7 2.99-1.35 5.99-1.92 9.01-.34 1.81.66 3.3 2.24 3.67 1.56.36 3.08-.56 3.6-2.36.47-1.64.77-3.32.99-4.31.35-2.39.83-4.02 1.34-5.65M493.8 58.33c-1.62-.5-3.27.45-3.67 2.11-.41 1.68.59 3.2 2.32 3.54 1.54.3 2.95-.62 3.34-2.18.38-1.52-.47-3.01-1.98-3.47"/></svg>