<svg data-name="Layer 1" xmlns="http://www.w3.org/2000/svg" viewBox="0 0 401.94 173.66"><path d="M138.94 62.07c.4.49.91.49 1.39.43 2.5-.31 4.99-.28 7.48.15 1.82.31 3.58-.11 5.32-.65 6.02-1.9 12.03-3.8 18.06-5.68 6.89-2.15 13.84-4.02 20.9-5.56 6.17-1.34 12.37-2.48 18.6-3.44 2.47-.38 4.9-.99 7.36-1.48 4.52-.9 9.05-1.77 13.67-1.89 3.3-.08 6.58.02 9.88.42 8.57 1.03 17.04 2.64 25.5 4.3 1.76.35 3.57.52 5.37.63 2.51.15 4.99.51 7.45.98 7.39 1.4 14.8 2.7 22.15 4.31 4.89 1.07 9.67 2.62 14.51 3.94 1.93.53 3.86 1.08 5.82 1.49 5.6 1.19 9.56 4.47 12.04 9.52 2.36 4.82 3.86 9.87 3.58 15.34-.08 1.5.04 3 .03 4.51-.01 2.6-.81 4.92-2.53 6.89-2.98 3.4-6.08 6.69-9.74 9.36-2.26 1.65-4.71 3.04-7.13 4.46-2.33 1.37-4.73 2.62-7.09 3.94-4.03 2.27-8.19 4.19-12.76 5.17-3.13.68-6.19 1.68-9.31 2.41-5.16 1.21-10.34 2.41-15.54 3.44-3.14.62-6.34.92-9.51 1.36-4.26.6-8.52 1.23-12.78 1.78-5.56.71-11.13 1.35-16.7 2-2.09.25-4.18.42-6.27.67-5.78.69-11.58.92-17.39.68-4.7-.2-9.39.06-14.08.02-6.81-.06-13.62-.11-20.43-.1-2.4 0-4.79.26-7.19.28-4.2.02-8.41-.08-12.61-.1-1.9 0-3.81.06-5.71.13-1.59.06-3.18.28-4.77-.13-.55-.14-1.19-.01-1.79.04-4.79.42-9.55 1.05-14.3 1.74-10.49 1.51-20.99 3.01-31.57 3.87-5.92.48-11.8.29-17.68-.06-2.89-.17-5.76-.76-8.61-1.32-4.92-.96-4.73-3.28-3.69-6.75.62-2.1 1.53-4.14 2.51-6.11 3.18-6.37 6.77-12.5 11.19-18.12 2.41-3.07 4.76-6.2 7.43-9.05 3.02-3.22 6.2-6.29 9.7-8.98 5.96-4.58 11.97-9.1 17.95-13.66 1.26-.96 2.64-1.81 3.63-3.08-.41-.53-.91-.37-1.39-.31-7.66.99-15.16 2.8-22.63 4.71-.97.25-1.92.59-2.91.75-1.37.22-2.57-.65-2.95-2-.32-1.16.26-2.36 1.53-2.92.73-.32 1.52-.5 2.29-.71 9.97-2.71 20.06-4.88 30.36-5.77 2.81-.24 4.87-1.22 6.8-3.15 2.83-2.83 5.89-5.45 8.8-8.2 5.85-5.51 12.04-10.59 18.67-15.13 4.3-2.94 8.71-5.72 13.52-7.79.55-.24 1.09-.53 1.66-.7 1.39-.43 2.6.15 3.2 1.49.52 1.15.14 2.37-1 3.14-.33.22-.7.39-1.07.55-5.84 2.5-11.05 6.05-16.23 9.67-7.43 5.19-13.96 11.41-20.54 17.59-.2.19-.31.49-.45.72m-64.79 68.44c.75.73 1.69.73 2.57.85 7.17.97 14.34 1.29 21.57.71 10.39-.84 20.7-2.26 31-3.78 5.15-.76 10.32-1.34 15.49-1.94.59-.07 1.22-.12 1.79 0 1.9.42 3.8.15 5.7.08.9-.03 1.78-.11 2.69-.08 3.6.12 7.21.17 10.81.14 4-.03 8.01-.24 12.01-.26 6.21-.03 12.42.01 18.63.08 4.81.05 9.62-.23 14.43-.03 4.4.17 8.81.22 13.2-.22 3.69-.37 7.38-.73 11.05-1.18 5.47-.68 10.97-1.05 16.41-1.95 3.95-.65 7.92-1.13 11.89-1.69 3.37-.48 6.77-.81 10.1-1.47 5.1-1 10.17-2.19 15.23-3.38 3.02-.71 5.98-1.69 9.01-2.34 3.97-.86 7.59-2.51 11.1-4.48 2.62-1.47 5.22-2.98 7.88-4.37 5.59-2.93 10.2-7.03 14.36-11.72 1.21-1.36 1.74-2.9 1.73-4.67 0-1.3-.18-2.61-.09-3.91.3-4.22-.86-8.12-2.43-11.95-1.77-4.3-4.81-7-9.46-7.92-2.85-.56-5.67-1.31-8.45-2.16-6.43-1.97-12.91-3.67-19.52-4.94-7.78-1.5-15.56-2.98-23.46-3.68-1.1-.1-2.2-.26-3.27-.48-6.58-1.38-13.19-2.52-19.84-3.5-5.36-.79-10.72-1.47-16.16-1-3.7.32-7.34.93-10.97 1.69-3.62.76-7.24 1.51-10.91 2.03-3.17.45-6.32 1.04-9.46 1.69-7.65 1.58-15.28 3.28-22.74 5.64-5.73 1.81-11.52 3.44-17.23 5.3-2.07.67-4.3 1.05-6.05 2.54-.67.57-1.51.41-2.31.23-3.55-.81-7.12-1.04-10.75-.64-1.99.22-3.99.29-5.99.42-1.45.09-2.62.65-3.75 1.63-3.56 3.08-7.16 6.1-10.98 8.89-5.59 4.08-11.05 8.33-16.49 12.6-4.11 3.22-7.83 6.89-11.16 10.92-5.69 6.89-10.87 14.13-14.79 22.21-.96 1.97-2.02 3.92-2.4 6.1"/><path d="M154.38 111.02c.2-1.21.76-2.27 1.36-3.32 2.21-3.81 4.69-7.46 7.24-11.05 2.14-3.02 4.46-5.92 6.7-8.87 1.72-2.27 3.89-4.04 6.21-5.63.82-.56 1.74-1.08 2.69-1.3 3.62-.84 5.67-.02 7.69 2.59 1.68 2.17 2.63 4.71 3.5 7.28.23.66.35 1.36.56 2.03.15.46.15 1.15.67 1.24.82.14.77-.74 1-1.22 2.48-5.14 4.9-10.31 7.42-15.43.88-1.79 1.95-3.5 3.03-5.18.88-1.36 2.05-2.46 3.54-3.18 2.45-1.19 4.5-.4 5.95 1.77 1.29 1.93 2.1 4.11 2.59 6.37a39 39 0 01.74 5.04c.45 5.1.32 10.2-.02 15.3-.1 1.42-1.25 2.49-2.54 2.48-1.41-.02-2.52-.93-2.65-2.36-.1-.99-.08-2.01.03-3 .47-4.31.22-8.6-.11-12.9-.18-2.4-.66-4.77-1.84-6.92-.23-.42-.66-.51-.96-.13-.56.7-1.12 1.42-1.52 2.21-1.83 3.56-3.66 7.12-5.39 10.73-2.47 5.15-4.85 10.33-7.27 15.5-.17.36-.29.75-.51 1.09-1.07 1.67-2.82 1.84-4.33.49-.95-.85-1.39-1.89-1.52-3.16-.3-3.1-.96-6.13-1.85-9.11a24.15 24.15 0 00-2.1-4.96c-1.04-1.85-2.12-2.12-3.94-.95-1.6 1.03-3.15 2.17-4.32 3.7-2.68 3.5-5.38 6.99-7.96 10.55-1.64 2.27-3.11 4.66-4.65 7.01-.99 1.51-2.01 2.99-2.38 4.82-.14.71-.53 1.3-1.14 1.72-.79.54-1.65.79-2.54.3-.92-.5-1.58-1.24-1.53-2.39.02-.4.09-.79.15-1.19m-35.75 1.22c.3-.55.51-.78.55-1.04 1.39-9.12 3.57-18.09 5.28-27.15.13-.69.25-1.38.43-2.06.13-.48.29-.97.54-1.38.6-.99 1.86-1.5 2.84-1.21 1.16.34 2.01 1.5 1.9 2.74-.07.79-.27 1.58-.42 2.37l-4.11 20.35c-.2.98-.4 1.96-.59 2.9.71.45.98-.06 1.3-.41 2.24-2.43 4.46-4.88 6.72-7.29 1.77-1.9 3.5-3.87 5.76-5.24.43-.26.84-.57 1.3-.74 1.19-.44 2.48.03 3.16 1.07.66 1.03.62 2-.24 3.03-2.19 2.61-4.41 5.19-6.62 7.78-2.8 3.27-5.27 6.82-8.31 9.88-.56.57-1.13 1.13-1.76 1.62-1.35 1.03-2.85 1.87-3.92 3.24-.06.08-.15.13-.23.2-1.74 1.63-4.04.84-4.45-1.2-.24-1.21-.88-1.92-1.7-2.68-3.45-3.2-6.85-6.45-10.26-9.69-.36-.34-.71-.73-.92-1.17-.42-.89-.29-1.78.33-2.54.6-.73 1.36-1.15 2.37-1 .73.11 1.3.49 1.82.97 1.77 1.63 3.55 3.23 5.3 4.87 1.24 1.16 2.45 2.36 3.92 3.79m158.4-24.38c-.81 4-1.58 7.82-2.35 11.65-.28 1.37-.55 2.75-.84 4.12-.1.49-.2.99-.41 1.44-.52 1.1-1.94 1.77-3.01 1.47-1.12-.32-2.02-1.5-1.96-2.72.04-.69.2-1.38.34-2.07 1.3-6.48 2.58-12.96 3.94-19.43.64-3.04 1.58-5.97 3.4-8.58 1.17-1.68 2.56-3.05 4.12-4.32 1.06-.87 2.26-1.32 3.61-1.21 3.78.32 7.56.69 11.34 1.05.2.02.4.06.59.11 2.49.64 3.33 1.8 3.07 4.33-.06.6-.24 1.18-.28 1.78-.16 2.51-1.55 4.27-3.48 5.68-1.54 1.13-3.22 2.02-4.99 2.74-3.06 1.25-6.12 2.47-9.03 4.05-1.33.72-1.36.67-4.06-.07m1.06-4.25c3.82-2.09 7.36-3.42 10.82-4.92 1.09-.47 2.12-1.1 3.15-1.71.62-.37 1.06-.91 1.14-1.67.05-.43-.05-.81-.47-.98-.36-.15-.77-.27-1.16-.27-2.3-.03-4.58-.23-6.85-.6-1.01-.16-1.75.32-2.4.96-2.4 2.39-3.9 5.21-4.24 9.19m-26.13-.63c1.48-.43 2.9-.91 4.34-1.25 1.05-.25 1.99.08 2.68.96.62.79.68 1.91.16 2.83-.31.55-.78.94-1.34 1.15-.84.32-1.71.56-2.56.86-.77.26-.92.54-.56 1.36.74 1.68 1.08 3.44 1.23 5.25.22 2.64-.73 4.7-3.03 6.08-.68.41-1.36.87-2.1 1.15-4.03 1.56-7.83 3.57-11.69 5.49-.72.36-1.44.7-2.17 1.03-1.2.54-2.33.5-3.35-.41-1.08-.96-1.45-2.07-1.02-3.51.41-1.37.97-2.64 1.81-3.78 3.37-4.63 7.07-8.97 11.41-12.74.38-.33.75-.66 1.11-1.01.33-.32.35-.72.16-1.1-.27-.53-.58-1.05-.9-1.56-1.38-2.21-2.79-4.41-4.15-6.63-.47-.77-.91-1.57-1.23-2.41-.45-1.16.12-2.47 1.21-3.09 1.13-.64 2.47-.45 3.22.65 1.01 1.49 1.86 3.09 2.82 4.61 1.27 2.03 2.34 4.2 3.97 6.06m-9.65 16.35c2.44-1.07 4.89-2.13 7.33-3.22.71-.32 1.03-.92.97-1.69-.05-.59-.11-1.19-.22-1.78-.3-1.54-.76-1.73-1.91-.74-2.42 2.07-4.4 4.56-6.17 7.42"/></svg>