<?xml version="1.0" encoding="UTF-8"?>
<svg id="Layer_1" data-name="Layer 1" xmlns="http://www.w3.org/2000/svg" xmlns:xlink="http://www.w3.org/1999/xlink" viewBox="0 0 1247.06 206.64">
  <defs>
    <style>
      .cls-1 {
        fill: none;
      }

      .cls-2 {
        fill: url(#linear-gradient);
      }

      .cls-3 {
        clip-path: url(#clippath);
      }

      .cls-4 {
        fill: #fff;
      }
    </style>
    <clipPath id="clippath">
      <path class="cls-1" d="M298.6,120.55c-8.27,.02-16.56,.02-24.86,0-69.94-.05-140.72-.1-208.78,17.34-4.98,1.28-2.87,9,2.13,7.72,67.7-17.35,138-16.8,207.39-17,72.36-.21,144.72-.4,217.08-.24,144.69,.31,289.4,2.02,433.99,7.76,81.03,3.22,162.01,7.73,242.87,13.94,5.13,.4,5.11-7.61,0-8-144.97-11.13-290.32-16.74-435.68-19.43-98.84-1.83-197.72-2.32-296.58-2.32-45.86,0-91.71,.11-137.57,.24"/>
    </clipPath>
    <linearGradient id="linear-gradient" x1="-4121.13" y1="-553.62" x2="-4120.13" y2="-553.62" gradientTransform="translate(17098.58 -122539.56) rotate(-90) scale(29.77)" gradientUnits="userSpaceOnUse">
      <stop offset="0" stop-color="red"/>
      <stop offset=".1" stop-color="#ff9500"/>
      <stop offset=".2" stop-color="#f6ff00"/>
      <stop offset=".3" stop-color="#74ff15"/>
      <stop offset=".41" stop-color="#00ff25"/>
      <stop offset=".54" stop-color="#15ffdb"/>
      <stop offset=".65" stop-color="#006eff"/>
      <stop offset=".77" stop-color="#0007d4"/>
      <stop offset=".91" stop-color="#9607ff"/>
      <stop offset="1" stop-color="#000"/>
    </linearGradient>
  </defs>
  <path class="cls-4" d="M662.3,69.17c-3.25,.37-6.23,.72-9.2,1.05-.7,.08-1.4,.2-2.09,.17-1.25-.05-2.29-1.05-2.46-2.25-.17-1.19,.58-2.38,1.81-2.79,.47-.16,.98-.21,1.47-.27,6.96-.8,13.9-1.75,20.9-2.16,3.49-.2,6.97-.64,10.48-.47,1.42,.07,2.77,.38,4.15,.62,1.53,.27,2.58,1.04,2.92,2.62,.86-.11,1.07-.82,1.45-1.35,.95-1.31,1.99-2.51,3.45-3.28,1.37-.72,2.45-.55,3.52,.54,1.04,1.06,1.59,2.26,1.43,3.79-.1,.98-.03,1.98-.04,3.26,.92-.77,1.28-1.56,1.64-2.33,.8-1.74,1.97-3.25,2.98-4.86,.44-.71,1.05-1.2,1.7-1.67,2.26-1.64,4.94-.51,5.34,2.29,.2,1.38,.35,2.8,.28,4.19-.16,3.1-.47,6.19-.74,9.28-.32,3.69-.65,7.38-.2,11.09,.05,.4,.12,.8,.09,1.19-.1,1.28-1.02,2.21-2.3,2.4-1.05,.16-2.21-.45-2.61-1.59-.32-.93-.51-1.94-.56-2.93-.18-3.3-.1-6.6,.33-9.88,.26-1.99,.42-3.98,.24-6.36-1.68,2.32-2.95,4.49-4.02,6.78-.89,1.92-2.17,3.58-3.38,5.3-.17,.24-.39,.46-.62,.65-1.48,1.25-3.47,.75-4.15-1.09-.46-1.25-.4-2.55-.24-3.86,.18-1.49,.31-2.99,.43-4.49,.03-.41-.13-.78-.67-1.03-2.09,4.87-4.38,9.66-6.02,14.71-.8,2.48-1.49,4.99-2.23,7.49-.17,.58-.29,1.18-.51,1.73-.57,1.4-1.8,1.99-3.14,1.58-1.24-.39-1.93-1.43-1.77-2.77,.07-.59,.25-1.18,.39-1.76,1.59-6.65,3.91-13.04,6.83-19.22,.76-1.62,1.39-3.31,2.1-5.03-.54-.51-1.1,.01-1.6-.08-.49-.09-.99-.12-1.48-.2-.59-.09-1.18-.24-1.78-.3-1.09-.11-2.2-.3-3.29-.24-3.9,.21-7.79,.52-11.68,.76-.68,.04-1.17,.23-1.38,.9-2.25,7.08-5.49,13.76-8.37,20.58-.7,1.66-1.42,3.31-2.08,4.99-.31,.78-.78,1.4-1.44,1.88-1.02,.75-2.17,.74-3.05,.02-.97-.8-1.33-1.83-.89-2.93,.41-1.02,1.03-1.95,1.42-2.98,2.18-5.6,4.94-10.96,6.94-16.63,.56-1.58,1.68-2.97,1.68-5.08m-440.03,19.59c.49,1.16,.35,2.13-.43,3.06-1.87,2.25-3.96,4.19-6.63,5.52-2.99,1.48-6.16,2.35-9.33,3.27-.48,.14-.99,.17-1.45,.36-1.18,.49-1.82,1.7-1.59,2.93,.22,1.16,1.34,2.06,2.62,2.02,.6-.02,1.2-.09,1.78-.25,3.68-.98,7.31-2.08,10.7-3.88,3.62-1.92,6.49-4.62,8.83-7.95,1.26-1.78,1.51-3.69,.84-5.7-.51-1.52-1.07-3.02-1.95-4.38-.54-.84-1.06-1.7-1.56-2.57-.22-.38-.17-.79,.19-1.06,.88-.67,1.76-1.32,2.67-1.94,3.04-2.11,6.15-4.12,9.13-6.32,3.3-2.44,3.53-4.55,1.28-8.29-.3-.51-.76-.92-1.14-1.38-.84-.99-1.9-1.43-3.2-1.27-2.38,.3-4.76,.58-7.11,1.11-2.51,.57-4.66,1.75-6.65,3.32-1.7,1.34-2.86,3.01-3.39,5.15-1.1,4.37-2.27,8.73-3.41,13.09-.15,.58-.33,1.17-.37,1.76-.09,1.22,.78,2.4,1.93,2.71,1.04,.29,2.29-.17,2.86-1.15,.3-.51,.43-1.11,.63-1.68,.29-.82,.28-1.75,1.09-2.66,1.63,2.04,2.76,4.02,3.66,6.16m-1.52-15.9c.4-2.87,2.35-4.3,4.79-5.22,2.16-.81,4.45-1.07,6.73-1.34,.45-.05,.73,.23,.91,.62,.15,.32,0,.57-.21,.79-.2,.22-.42,.43-.67,.6-3.95,2.68-7.9,5.35-11.85,8.03l-.5-.33c.27-1.05,.65-2.08,.8-3.15m267.82,20.7c.23,2.99,.86,5.94,.84,8.96,0,1.67,1.09,2.77,2.51,2.81,1.42,.04,2.58-1.06,2.67-2.66,.06-1.09,.02-2.2-.09-3.29-.29-3.09-.68-6.17-.93-9.25-.3-3.6-.87-7.16-1.81-10.65-.65-2.43-1.57-4.75-2.92-6.89-.88-1.4-2.09-2.39-3.52-3.17-1.24-.68-2.46-.69-3.77-.27-1.1,.35-1.93,1.04-2.63,1.91-1.27,1.57-2.29,3.28-3.06,5.14-2.03,4.9-3.96,9.85-6.09,14.7-2.25,5.14-3.92,10.52-6.54,15.5-.74,1.41-.14,2.93,1.18,3.57,1.19,.59,2.56,.18,3.37-1.11,.53-.84,1-1.74,1.38-2.67,1.8-4.34,3.56-8.7,5.34-13.05,.18-.43,.23-1,.91-.99q2.01,1.97,4.73,1.44c.2-.04,.39-.09,.59-.13,2.45-.48,4.9-.95,7.28-1.41,.43,.5,.53,.99,.57,1.49m-12.23-4.52c1.21-3.51,2.43-6.77,3.96-9.91,.65-1.34,1.33-2.68,2.07-3.98,.49-.86,1.3-.84,1.89,.02,.45,.66,.87,1.35,1.2,2.08,1.31,2.94,2,6.03,2.32,9.42-3.8,.78-7.49,1.55-11.43,2.36m142.96-2.34c1.98,4.29,4.61,8.17,7.52,11.87,.43,.55,.84,1.09,1.44,1.5,2.07,1.39,3.42,1.19,4.83-.83,.98-1.41,1.66-2.97,2.16-4.6,1.55-5.07,3.25-10.11,4.41-15.29,.5-2.24,.83-4.53,1.19-6.8,.14-.89,.2-1.79,.21-2.69,.02-1.44-.94-2.48-2.35-2.64-1.17-.14-2.38,.68-2.75,1.87-.09,.28-.11,.59-.13,.89-.26,5.15-1.77,10.05-3.1,14.97-.71,2.6-1.6,5.16-2.44,7.73-.25,.76-.81,.84-1.28,.16-1.72-2.46-3.42-4.91-4.55-7.73-1.17-2.91-1.65-5.97-2.31-9-.11-.49-.11-1-.26-1.47-.41-1.27-1.65-2.11-3-2.06-1.27,.05-1.98,.83-2.42,1.92-.11,.28-.18,.57-.26,.86-1.24,4.75-2.55,9.48-3.7,14.25-.65,2.72-1.05,5.5-1.55,8.26-.07,.39-.11,.8-.08,1.19,.09,1.09,1.01,2.15,2,2.37,1.14,.25,2.44-.43,2.93-1.57,.16-.36,.28-.76,.35-1.15,.35-1.77,.76-3.53,.99-5.31,.26-2,.84-3.92,1.33-5.85,.09-.35,.06-.81,.55-.94,.09,.03,.24,.03,.26,.09m-239.52,12.23c-.26,1.63,.49,2.87,1.94,3.24,1.32,.34,2.53-.25,3.06-1.73,.7-1.98,1.91-3.74,2.39-5.82,.25-1.06,.79-2.05,1.19-3.08,.23-.6,.6-1.03,1.27-1.14,1.48-.24,2.96-.51,4.44-.73,.48-.07,.8,.25,.7,.7-.24,1.18-.56,2.33-.86,3.5-.39,1.55-.85,3.09-1.16,4.66-.24,1.22,.6,2.43,1.75,2.81,1.04,.35,2.27-.03,2.9-1.02,.36-.58,.59-1.26,.78-1.93,.64-2.32,1.24-4.65,1.83-6.98,.25-.99,.59-1.87,1.47-2.52,.9-.65,1.26-1.65,.76-2.66-.55-1.11-.23-2.12-.06-3.21,.46-2.86,1.24-5.67,1.22-8.6-.01-1.76-.48-3.39-1.34-4.86-1.66-2.82-6.21-3.48-7.89-.84-.54,.84-1.29,1.53-1.81,2.37-1.79,2.89-3.5,5.83-4.86,8.95-.6,1.37-1.16,2.76-1.78,4.13-.54,1.2-1.15,2.19-2.76,2.36-2.58,.26-3.47,3.14-1.28,4.82,.08,.06,.16,.12,.25,.17,.55,.31,.53,.8,.34,1.29-.36,.93-.73,1.85-1.13,2.77-.4,.92-.83,1.82-1.11,2.42-.14,.52-.2,.71-.23,.9m12.18-16.13c1.35-3.01,2.98-5.87,4.69-8.68,.15-.25,.32-.52,.55-.69,.22-.15,.6-.28,.71,.11,.13,.47,.23,.98,.2,1.46-.15,2.6-.62,5.15-1.29,7.67-.19,.73-.5,1.23-1.37,1.32-1.28,.14-2.54,.41-3.77,.62-.31-.77,.03-1.29,.27-1.82m135.75-16.57c-.87-.23-1.74-.47-2.62-.68-6.42-1.59-12.75,1.67-15.1,8.62-.58,1.71-.95,3.48-1.41,5.23-.45,1.75-.53,3.71-1.42,5.19-1.06,1.75-.53,3.48-.82,5.2-.03,.2-.07,.4-.12,.59-.72,2.53-.86,5.14-1.14,7.73-.26,2.39-.39,4.78-.29,7.19,.04,.97,.26,1.8,1.02,2.38,.75,.58,1.65,.8,2.54,.4,.96-.44,1.63-1.17,1.66-2.3,.03-1.4,0-2.8,.07-4.2,.17-3.81,.82-7.55,1.37-11.32,.22-1.52,.87-2.57,2.09-3.43,3.19-2.25,6.33-4.59,9.51-6.85,2.53-1.8,5.13-3.5,7.67-5.3,.81-.57,1.62-1.21,2.23-1.99,1.62-2.06,1.67-3.91-1.46-5.5-.35-.18-.76-.25-1.15-.35-.87-.23-1.75-.46-2.62-.69,0,.03-.02,.06-.02,.09m-2.11,5.52c-3.5,2.5-7.01,4.98-10.52,7.46-.13,.09-.36,.07-.54,.04-.24-.05-.29-.23-.23-.48,.47-2.04,.81-4.1,2.2-5.82,1.37-1.7,3.15-2.44,5.22-2.53,1.37-.06,2.69,.35,3.92,.86-.03,.28,0,.44-.05,.47m-196.14,2.01c.17-.68,.38-1.36,.45-2.05,.11-1.19-.79-2.46-1.88-2.78-1.04-.31-2.5,.35-3.05,1.41-.18,.35-.31,.74-.39,1.13-1.07,5.12-3.18,9.92-4.62,14.93-.36,1.26-.85,2.45-1.37,3.65-.68,1.56-1.25,3.17-1.78,4.78-.49,1.53,.22,2.94,1.6,3.43,1.35,.48,2.67-.21,3.33-1.77,.23-.55,.38-1.14,.6-1.7,.59-1.49,1.19-2.98,1.82-4.45,.28-.66,.84-.82,1.46-.39,2.63,1.82,5.24,3.68,7.87,5.51,2.62,1.83,5.24,3.67,7.87,5.49,.92,.64,1.91,1.11,3.02,1.28,1.06,.16,2.22-.52,2.71-1.52,.4-.84,.21-2.08-.53-2.78-.43-.4-.98-.68-1.49-.98-.6-.36-1.21-.69-1.81-1.05-4.64-2.8-8.72-6.39-13.25-9.33-.68-.44-.65-.91,.12-1.35,2.71-1.53,5.43-3.02,8.16-4.51,2.19-1.2,4.35-2.49,6.85-3,.38-.08,.74-.31,1.05-.54,1-.76,1.25-2.15,.61-3.23-.63-1.05-1.53-1.51-2.78-1.32-2.11,.33-4.01,1.24-5.86,2.22-3.27,1.73-6.5,3.53-10.45,5.67,.71-2.72,1.24-4.74,1.76-6.75m227.76-1.17c.03-1.54-.34-2.97-1.09-4.31-.42-.74-1.02-1.2-1.86-1.4-1.72-.41-3.39-.35-4.93,.58-3.01,1.8-6.02,3.59-8.98,5.47-1.21,.77-1.98,1.97-2.32,3.39-.96,3.99-1.95,7.98-2.85,11.99-.27,1.19-.47,2.3-1.46,3.19-.91,.81-1.06,1.95-.41,3.01,.51,.83,.52,1.66,.44,2.58-.2,2.29-.3,4.59-.41,6.89-.06,1.22,.48,2.15,1.59,2.66,1.01,.47,1.95,.22,2.78-.5,.57-.49,.85-1.12,.9-1.84,.1-1.3,.15-2.6,.23-3.9,.08-1.4,.17-2.8,.26-4.2,.08-1.2,.56-1.95,1.85-2.36,1.99-.64,3.95-1.47,5.82-2.42,4.89-2.47,8.21-6.29,9.57-11.68,.67-2.34,.83-4.74,.88-7.15m-7.94,10.15c-1.85,2.67-4.52,4.18-7.53,5.16-.74,.24-1.08-.13-.87-.98,.68-2.82,1.39-5.63,2.09-8.45,.15-.58,.28-1.19,.86-1.52,2.59-1.47,4.86-3.49,8.12-4.81-.04,4-.53,7.51-2.67,10.6m196.69-19.35c1.27-.8,1.79-2.13,1.28-3.31-.62-1.45-1.87-1.96-3.46-1.37-1.03,.38-2,.85-2.86,1.6-3.37,2.91-5.98,6.46-8.33,10.18-.78,1.23-1.58,1.94-2.96,2.18-1.48,.25-2.93,.64-4.41,.92-.6,.12-1.16,.3-1.65,.67-.85,.65-1.21,1.68-.92,2.67,.32,1.11,1.29,1.94,2.4,1.93,.69-.01,1.38-.2,2.08-.29,.57-.08,1.17-.39,1.81,.23-.35,1.07-.71,2.2-1.08,3.34-.75,2.28-1.51,4.56-2.25,6.85-.47,1.46,.22,2.54,1.23,3.45,.99,.89,2.03,.57,3.06,.02,1.59-.85,3.18-1.69,4.78-2.53,4.42-2.35,8.85-4.68,13.27-7.05,.7-.38,1.41-.8,1.98-1.34,.9-.86,.92-2.3,.17-3.3-.68-.9-1.89-1.28-2.94-.85-.55,.22-1.06,.57-1.59,.85-3.8,2.02-7.61,4.04-11.41,6.05-.42,.22-.84,.59-1.45,.15,.41-2.34,1.55-4.46,2.29-6.72,.25-.77,.84-1.02,1.61-1.11,1.11-.13,2.19,.08,3.29,.14,1.51,.09,2.55-.77,2.82-2.15,.26-1.31-.47-2.47-1.9-2.99-.64-.24-1.42-.11-1.92-.72,2-3.49,3.86-5.45,7.08-7.48m-182.47,30.36c-.19,1.91,.41,2.96,2.19,3.36,1.17,.26,1.94,.96,2.84,1.56,3.35,2.21,6.8,2.61,10.52,.84,1.78-.85,3.12-2.14,4.45-3.5,3.73-3.85,5.9-8.51,7.15-13.65,.32-1.29,.38-2.63-.2-3.83-1.2-2.51-2.87-4.52-5.72-5.36-5.37-1.58-10.3-.57-14.91,2.35-1.64,1.04-2.76,2.62-3.41,4.46-.54,1.51-.97,3.05-1.44,4.58-.95,2.99-1.16,6.1-1.47,9.19m14.88-.02c-2.2,1.92-4.53,2.15-6.89,.63-.8-.52-1.35-1.18-.97-2.26,.45-1.28,.54-2.55-.44-3.68-.36-.42-.32-.94-.19-1.43,.48-1.74,.96-3.48,1.5-5.2,.34-1.09,1.06-1.96,2.09-2.46,3.05-1.47,6.21-2.21,9.58-1.13,2.16,.69,2.9,2.01,2.24,4.11-.09,.28-.23,.55-.18,.42-1.42,4.52-3.46,8.14-6.73,11m-292.28,2.65c-.33,1.29,.11,2.39,1,3.29,1.29,1.31,3.58,.75,4.16-1.01,.15-.46,.19-.98,.18-1.47-.02-1.03,.26-1.98,.61-2.92,.16-.43,.53-.64,.94-.52,1.16,.33,2.3,.7,3.44,1.07,2.38,.78,4.56,.31,6.53-1.16,.72-.53,1.4-1.14,2.02-1.79,4.23-4.48,6.55-10.02,8.49-15.73,.71-2.09-.57-3.97-2.75-4.52-.77-.19-1.56-.34-2.38-.22-.99,.15-1.99,.21-2.98,.33-5.51,.64-9.78,3.24-12.82,7.91-2.43,3.74-4.12,7.77-5.23,12.07-.41,1.55-.82,3.1-1.21,4.66m19.64-15.13c-1.16,2.77-2.77,5.29-4.9,7.46-1.12,1.14-2.3,1.46-3.78,.84-2.82-1.18-3.56-1.36-1.62-4.47,.79-1.27,1.47-2.62,2.38-3.8,2.35-3.08,5.58-4.3,9.41-4.35,.2,1.8-.92,2.98-1.48,4.32m493.6,3.1c-1.11,4.26-2.24,8.53-3.34,12.79-.2,.77-.42,1.56-.45,2.35-.05,1.31,.82,2.29,2.08,2.56,1.21,.26,2.4-.35,2.89-1.58,.29-.74,.46-1.53,.66-2.31,2.23-8.53,4.45-17.06,6.71-25.58,.36-1.34,.21-3.1,1.27-3.9,1.03-.77,2.64-.77,4.01-1.06,1.57-.33,3.16-.53,4.71-.93,1.32-.34,2.06-1.54,1.89-2.71-.2-1.39-1.26-2.36-2.69-2.33-.79,.02-1.58,.2-2.36,.36-7.26,1.43-14.49,3.03-21.89,3.6-.79,.06-1.59,.25-2.32,.54-1.04,.42-1.62,1.66-1.42,2.72,.2,1.09,1.15,2.03,2.24,2.12,.49,.04,.99-.05,1.48-.11,2.98-.34,5.96-.71,8.94-1.04,1.06-.12,1.32,.12,1.07,1.1-1.14,4.46-2.32,8.92-3.49,13.38,0,0,.02,0,.02,0m-390.13,10.95c-.25,.97-.56,1.93-.71,2.92-.2,1.35,.74,2.68,1.99,2.97,1.13,.26,2.48-.38,2.99-1.51,.25-.54,.37-1.14,.52-1.72,.69-2.62,1.36-5.24,2.07-7.85,.29-1.06,.61-2.12,1.01-3.15,.36-.94,.91-1.78,1.73-2.42,1.03-.81,1.92-.64,2.31,.58,.47,1.42,.83,2.89,1.15,4.35,.5,2.27,1.26,4.43,2.54,6.38,1.86,2.83,6.33,3.32,8.3,.81,.86-1.1,1.9-2.07,2.67-3.23,1.71-2.59,3.36-5.22,4.92-7.9,.75-1.29,1.33-2.7,1.83-4.11,.48-1.37-.22-2.69-1.48-3.21-1.26-.52-2.63-.03-3.34,1.22-.15,.26-.22,.56-.33,.84-1.69,3.99-4.1,7.55-6.53,11.1-.22,.33-.51,.62-.79,.91-.55,.57-1.03,.51-1.4-.18-.76-1.43-1.12-2.99-1.44-4.57-.37-1.87-.82-3.7-1.72-5.42-1.59-3.02-4.35-4.2-7.52-3-2.45,.92-4.17,2.67-5.34,5.01-1.32,2.63-1.94,5.47-2.68,8.28-.25,.97-.51,1.94-.76,2.91m-142.74-17.4c-2.2-.5-4.34-.34-6.47,.46-3.7,1.4-5.94,4.32-7.76,7.56-1.02,1.8-1.94,3.72-2.16,5.87-.21,1.99,1.01,3.45,2.97,3.07,1.22-.23,2.09,.03,3.07,.58,1.05,.58,2.22,.95,3.23,1.57,2.5,1.53,4.94,1.23,7.39-.04,2.24-1.17,4.18-2.74,5.91-4.55,1.59-1.67,2.99-3.51,3.98-5.6,1.58-3.32,.44-4.68-1.45-5.9-1.81-1.18-3.8-1.75-5.83-2.27-.97-.25-1.93-.53-2.9-.75m-6.25,13.65c-4.72-2.21-4.48-1.97-1.26-6.17,1.68-2.18,3.98-2.94,6.67-2.33,1.66,.38,3.3,.85,4.93,1.32,.75,.22,.99,.78,.64,1.36-1.7,2.79-3.93,5.03-6.83,6.58-.75,.4-1.49,.55-2.68,.04-.25-.13-.85-.5-1.48-.8m500.17-9.05c-.39,1.63,.37,2.92,1.76,3.32,1.37,.39,2.68-.34,3.26-1.93,.31-.84,.61-1.73,.66-2.61,.17-3.03,1.25-5.87,1.76-8.83,.08-.49,.28-.96,.45-1.43,.14-.39,.72-.43,.96-.08,.28,.41,.53,.84,.78,1.27,1.36,2.35,2.11,4.97,3.19,7.44,.44,1.01,.83,2.06,1.44,2.96,1.15,1.72,3.48,1.92,4.95,.47,.56-.55,1.09-1.2,1.44-1.9,1.43-2.86,2.82-5.75,4.16-8.65,.71-1.54,1.35-3.12,1.95-4.71,.44-1.15-.13-2.52-1.17-3.11-1.11-.63-2.41-.42-3.26,.58-.32,.37-.56,.83-.76,1.28-.49,1.1-.92,2.22-1.41,3.32-.78,1.73-1.59,3.45-2.41,5.16-.18,.37-.78,.4-.97,.08-.21-.34-.43-.69-.56-1.06-.64-1.8-1.47-3.51-2.47-5.14-.84-1.37-1.74-2.73-3.1-3.63-2.24-1.48-4.22-1.32-6.05,.26-.78,.68-1.21,1.6-1.49,2.57-.46,1.64-.87,3.29-1.3,4.94-.98,3.07-1.08,6.31-1.83,9.43m-160.04,15.41c-.24-6.51,.28-12.97,1.03-19.43,.36-3.07,.26-6.19,.35-9.29,0-.29-.06-.6-.16-.88-.35-1.08-1.46-1.86-2.5-1.79-1.19,.09-2.15,.79-2.41,1.91-.16,.67-.15,1.39-.21,2.08-.22,2.89-.17,5.78-.47,8.68-.69,6.56-1.31,13.14-.86,19.76,.06,.89-.07,1.81,.05,2.69,.16,1.28,1.18,2.11,2.49,2.19,1.17,.07,2.36-.84,2.7-2.31,0-1.01,.03-2.31-.02-3.6m267.3-18.23c.14-1.2,.27-2.4-.19-3.56-.64-1.63-2.62-2.16-3.97-1.07-.78,.63-1.33,1.48-1.87,2.32-1.61,2.53-3.27,5.03-4.93,7.54-.44,.66-.93,1.29-1.43,1.91-.28,.34-.85,.21-.92-.2-.3-2.07-.78-4.14-.29-6.25,.16-.68,.37-1.36,.43-2.05,.14-1.41-.75-2.57-2.1-2.86-1.19-.25-2.41,.37-2.92,1.57-.27,.64-.43,1.34-.55,2.02-.76,4.25-.04,8.37,1.23,12.42,.2,.64,.68,1.21,1.09,1.77,.97,1.31,2.27,1.49,3.76,1.05,.81-.24,1.39-.75,1.94-1.35,1.63-1.77,3.15-3.62,4.47-5.64,.24-.37,.34-1.04,1.01-.89,.47,.1,.42,.61,.55,.96,.14,.38,.27,.76,.42,1.13,1.14,2.78,5.23,3.61,7.09,1.87,.96-.89,1.94-1.73,2.7-2.8,2.98-4.2,4.88-8.94,6.83-13.65,.11-.28,.19-.57,.24-.87,.22-1.22-.44-2.43-1.58-2.93-.92-.4-2.29-.04-2.95,.89-.4,.56-.67,1.22-.93,1.87-1.28,3.04-2.59,6.07-4.16,8.98-.62,1.14-1.27,2.25-2.49,3.39-.82-2.01-.71-3.8-.5-5.59m70.29-.84c-.23,.98-.55,1.94-.71,2.92-.22,1.37,.65,2.7,1.88,3.04,1.22,.34,2.63-.39,3.16-1.68,.19-.46,.29-.96,.42-1.44,2.06-7.86,4.11-15.72,6.17-23.58,.15-.58,.33-1.17,.38-1.76,.1-1.27-.71-2.39-1.9-2.73-1.17-.34-2.49,.2-3.04,1.34-.3,.62-.45,1.33-.62,2.01-1.05,3.98-2.08,7.96-3.13,11.93-.15,.58-.29,1.2-.62,1.67-.4,.57-1.11,.15-1.68,.27-.98,.2-1.96,.39-2.95,.54-1.85,.29-2.07,.02-1.6-1.92,.38-1.56,.84-3.1,1.11-4.68,.21-1.25-.7-2.34-1.95-2.64-1.13-.27-2.27,.2-2.79,1.25-.27,.53-.42,1.13-.58,1.71-.45,1.65-.89,3.29-1.3,4.95-.2,.83-.49,1.51-1.5,1.58-.39,.03-.79,.19-1.13,.38-1.35,.74-1.76,2.34-.91,3.6,.22,.33,.48,.68,.81,.87,.8,.45,.75,1.08,.56,1.8-.26,.97-.5,1.94-.76,2.91-.4,1.55-.82,3.1-1.2,4.66-.17,.68-.31,1.36,0,2.06,.43,.93,1.36,1.57,2.36,1.56,1.11-.01,2-.5,2.34-1.55,.58-1.81,1-3.68,1.54-5.5,.51-1.72,.67-3.55,1.59-5.13,1.58-.27,3.15-.54,4.73-.8,.48-.08,.95-.34,1.82,.03-.17,.79-.32,1.57-.5,2.34m37.74-13.43c.35-1.36,.76-2.71,1.03-4.08,.28-1.45-.51-2.63-1.84-3-1.18-.33-2.43,.21-3.04,1.36-.23,.44-.35,.94-.48,1.42-.74,2.81-1.59,5.6-2.18,8.44-.86,4.11-1.63,8.22-1.77,12.46-.12,3.7,1.57,6.17,4.6,7.75,3.99,2.07,5.08,1.44,7.58-1.38,1.59-1.79,2.99-3.77,4.05-5.94,2.29-4.67,4.52-9.37,6.75-14.07,.43-.9,.8-1.84,1.11-2.79,.51-1.53-.15-2.92-1.55-3.43-1.3-.47-2.57,.06-3.25,1.39-.18,.35-.29,.74-.44,1.12-2.08,5.09-4.56,10-7.03,14.9-.89,1.77-2.14,3.38-3.28,5.02-.52,.74-1.07,.77-1.83,.36-1.22-.66-1.53-1.7-1.48-3.02,.17-4.74,1.1-9.33,2.29-13.65,.29-1.11,.52-1.98,.74-2.85m-66.7,12.11c.91-3.49,1.84-6.97,2.72-10.46,.18-.74,.41-1.29,1.22-1.5,2.52-.64,5.03-1.3,7.55-1.95,.38-.1,.8-.07,1.17-.21,1.05-.37,1.75-1.46,1.71-2.58-.04-1.09-.86-2.09-2-2.33-.89-.19-1.8-.15-2.68,.08-1.35,.35-2.71,.71-4.05,1.09-3.94,1.13-7.91,2.16-11.94,2.91-1.77,.33-3.54,.67-5.3,1-.89,.17-1.75,.43-2.49,.98-1.22,.9-1.4,2.55-.4,3.7,.82,.94,1.84,1.03,3.01,.77,2.14-.49,4.3-.89,6.46-1.32,.49-.1,.98-.2,1.48-.2,.3,0,.57,.28,.52,.59-.13,.79-.32,1.57-.52,2.34-1.31,5.04-2.64,10.07-3.94,15.11-.2,.77-.41,1.56-.44,2.35-.05,1.21,.99,2.41,2.09,2.6,1.17,.21,2.41-.47,2.89-1.66,.26-.65,.41-1.34,.58-2.02,.82-3.1,1.62-6.2,2.44-9.3-.02,0-.03,0-.05-.01m97.2,1.55c-3.19,1.45-6.3,3.07-9.33,4.82-.69,.4-1.41,.79-2.02,1.29-.91,.75-1.09,1.94-.56,3,.54,1.08,1.91,1.71,3.04,1.34,.47-.15,.9-.43,1.34-.68,3.23-1.81,6.46-3.61,9.88-5.06,.82-.35,1.57-.88,2.31-1.37,1.86-1.23,2.19-2.99,1.6-5-.22-.77-.47-1.54-.85-2.24-.89-1.68-1.84-3.33-2.79-4.98-.5-.87-1.02-1.72-1.56-2.57-.57-.9-.64-1.83-.39-2.87,.4-1.69,1.19-3.18,2.08-4.64,.83-1.37,1.72-2.7,2.51-4.08,.4-.69,.73-1.43,.93-2.19,.29-1.11-.32-1.94-1.15-2.58-.76-.59-2-.54-2.8,.14-.45,.37-.81,.88-1.13,1.38-1.13,1.77-2.28,3.53-3.31,5.36-.98,1.74-1.82,3.55-2.35,5.51-.5,1.85-.39,3.58,.45,5.25,.67,1.34,1.46,2.62,2.22,3.91,1.05,1.8,2.3,3.51,2.91,5.64-.38,.23-.69,.48-1.04,.64m-112.91,1.61c.46-1.75,.92-3.49,1.37-5.24,.28-1.07,.6-2.13,.79-3.21,.24-1.32-.44-2.43-1.62-2.88-1.18-.44-2.43-.02-3.12,1.09-.21,.33-.37,.72-.47,1.1-1.41,5.33-2.83,10.66-4.18,16.01-.5,1.97,.35,3.47,1.94,3.77,1.46,.28,2.63-.59,3.15-2.5,.75-2.71,1.43-5.43,2.14-8.15h0Z"/>
  <g class="cls-3">
    <rect class="cls-2" x="59.98" y="120.32" width="1113.57" height="30.15"/>
  </g>
</svg>